<?xml version="1.0" encoding="utf-8"?>
<!-- Generator: Adobe Illustrator 22.0.1, SVG Export Plug-In . SVG Version: 6.00 Build 0)  -->
<svg version="1.1" onclick="alert(&quot;d&quot;)" xmlns="http://www.w3.org/2000/svg" xmlns:xlink="http://www.w3.org/1999/xlink"
	 x="0px" y="0px" viewBox="0 0 36.9 36.9" style="enable-background:new 0 0 36.9 36.9;" xml:space="preserve">
<style type="text/css">
	.st0{fill:#EFEFEF;}
	.st1{opacity:0.7;}
	.st2{fill:#999999;}
	.st3{fill:#BC0202;}
	.st4{fill:#75892B;}
	.st5{fill:#EFEFEF;stroke:#000000;stroke-miterlimit:10;}
	.st6{fill:#494949;}
	.st7{fill:none;stroke:#333333;stroke-miterlimit:10;}
	.st8{opacity:4.000000e-02;}
	.st9{fill:#BC0202;stroke:#EFEFEF;stroke-width:9;stroke-miterlimit:10;}
	.st10{fill:#75892B;stroke:#EFEFEF;stroke-width:7;stroke-miterlimit:10;}
	.st11{opacity:0.5;}
	.st12{clip-path:url(#SVGID_4_);}
	.st13{opacity:0.4;}
	.st14{opacity:0.4;fill:#333333;stroke:#808080;stroke-width:0.75;stroke-miterlimit:10;}
	.st15{fill:#333333;stroke:#BC0202;stroke-width:0.75;stroke-miterlimit:10;}
	.st16{fill:none;stroke:#FFFFFF;stroke-miterlimit:10;}
	.st17{fill:#FFFFFF;}
	.st18{clip-path:url(#SVGID_16_);fill:none;stroke:#FFFFFF;stroke-width:1.5;stroke-miterlimit:10;}
	.st19{fill:none;stroke:#FFFFFF;stroke-width:2;stroke-miterlimit:10;}
	.st20{fill:#FFFFFF;stroke:#FCFCFC;stroke-width:0.75;stroke-miterlimit:10;}
	.st21{opacity:0.4;fill:#FFFFFF;stroke:#FCFCFC;stroke-width:0.75;stroke-miterlimit:10;}
	.st22{fill:#D1D1D1;}
	.st23{fill:#333333;}
	.st24{opacity:0.7;clip-path:url(#SVGID_22_);}
	.st25{clip-path:url(#SVGID_22_);}
	.st26{opacity:0.5;clip-path:url(#SVGID_22_);}
	.st27{clip-path:url(#SVGID_24_);fill:none;stroke:#000000;stroke-width:1.5;stroke-miterlimit:10;}
	.st28{fill:none;stroke:#000000;stroke-width:2;stroke-miterlimit:10;}
	.st29{fill:#7F1616;}
	.st30{fill:#58661E;}
	.st31{fill:#7F7F7F;}
	.st32{fill:none;}
	.st33{opacity:0.22;fill:#515151;}
	.st34{fill:#BC0202;stroke:#EFEFEF;stroke-width:4.5;stroke-miterlimit:10;}
	.st35{fill:none;stroke:#BC0202;stroke-width:10;stroke-miterlimit:10;}
	.st36{fill:#B3B3B3;}
	.st37{opacity:0.7;clip-path:url(#SVGID_28_);}
	.st38{opacity:0.5;clip-path:url(#SVGID_28_);}
	.st39{opacity:0.4;clip-path:url(#SVGID_28_);}
	.st40{clip-path:url(#SVGID_30_);fill:none;stroke:#000000;stroke-width:1.5;stroke-miterlimit:10;}
	.st41{clip-path:url(#SVGID_32_);fill:#EFEFEF;stroke:#000000;stroke-miterlimit:10;}
	.st42{fill:#EDEDEE;}
	.st43{fill:#FF968A;}
	.st44{fill:#91AAC4;}
	.st45{fill:#3F5666;}
	.st46{fill:#E8C1B5;}
	.st47{fill:#CCA295;}
	.st48{fill:#E1E9F2;}
	.st49{fill:#B3D2F2;}
	.st50{fill:#2F3F4A;}
	.st51{fill:#9AA7B8;}
	.st52{fill:#444D56;}
	.st53{fill:#2C343A;}
	.st54{fill:#EAA50C;}
	.st55{fill:#A0D9F2;}
	.st56{fill:#D18E07;}
	.st57{fill:#A56B04;}
	.st58{fill:#F7B32D;}
	.st59{fill:#1D2C30;}
	.st60{fill:#FFE300;}
	.st61{fill:#E5C505;}
	.st62{fill:#DB950B;}
	.st63{fill:#81C784;}
	.st64{fill:#4CAF50;}
	.st65{fill:#B26147;}
	.st66{fill:#8C4D39;}
	.st67{fill:#99533E;}
	.st68{fill:#CC6E51;}
	.st69{fill:#F9C199;}
	.st70{fill:#F08466;}
	.st71{fill:#535353;}
	.st72{fill:#A2A2A2;}
	.st73{fill:#FEC24C;}
	.st74{fill:#BC8D2F;}
	.st75{fill:#CBCDD1;}
	.st76{opacity:0.38;fill:#FFFFFF;}
	.st77{opacity:0.73;fill:#BC0202;}
	.st78{stroke:#FFFFFF;stroke-miterlimit:10;}
	.st79{fill:#A6A8AA;}
	.st80{fill:#C43535;}
	.st81{fill:#D0D1D3;}
	.st82{fill:#808183;}
	.st83{clip-path:url(#SVGID_34_);fill:none;stroke:#000000;stroke-width:1.5;stroke-miterlimit:10;}
	.st84{fill:none;stroke:#000000;stroke-miterlimit:10;}
	.st85{fill:#325763;}
	.st86{fill:#05232E;}
	.st87{fill:#6B8F9C;}
	.st88{fill:#F6D76F;}
	.st89{fill:#FBB071;}
	.st90{fill:#77BA70;}
	.st91{fill:#497F47;}
	.st92{fill:#F4D682;}
	.st93{fill:#A5C68B;}
	.st94{fill:#8C5218;}
	.st95{fill:#CCA154;}
	.st96{fill:#3E721D;}
	.st97{fill:#77B255;}
	.st98{fill:#292F33;}
	.st99{fill:#AA3E51;}
	.st100{fill:#D6C185;}
	.st101{fill:#F72349;}
	.st102{fill:#16A5D9;}
	.st103{fill:#FB5858;}
	.st104{fill:#D87D7D;}
	.st105{fill:#8DBAC6;}
	.st106{fill:#66A3B2;}
	.st107{fill:#4D4D4D;}
	.st108{fill:#5E6D1D;}
	.st109{fill:#874D20;}
	.st110{fill:#BA9052;}
	.st111{fill:#B1CD3E;}
	.st112{fill:#A3BC3B;}
	.st113{fill:#7E9822;}
	.st114{fill:#677C0F;}
	.st115{fill:#99AA37;}
	.st116{display:none;}
	.st117{clip-path:url(#SVGID_38_);fill:none;stroke:#FFFFFF;stroke-width:1.5;stroke-miterlimit:10;}
	.st118{clip-path:url(#SVGID_40_);fill:none;stroke:#FFFFFF;stroke-width:1.5;stroke-miterlimit:10;}
	.st119{clip-path:url(#SVGID_42_);fill:none;stroke:#FFFFFF;stroke-width:1.5;stroke-miterlimit:10;}
	.st120{opacity:0.3;clip-path:url(#SVGID_42_);fill:#FFFFFF;}
	.st121{clip-path:url(#SVGID_44_);fill:none;stroke:#FFFFFF;stroke-width:1.5;stroke-miterlimit:10;}
	.st122{display:inline;}
	.st123{clip-path:url(#SVGID_48_);fill:none;stroke:#FFFFFF;stroke-width:1.5;stroke-miterlimit:10;}
	.st124{clip-path:url(#SVGID_50_);fill:none;stroke:#BC0202;stroke-width:1.5;stroke-miterlimit:10;}
	.st125{clip-path:url(#SVGID_52_);fill:none;stroke:#FFFFFF;stroke-width:1.5;stroke-miterlimit:10;}
	.st126{opacity:0.3;clip-path:url(#SVGID_52_);fill:#FFFFFF;}
	.st127{clip-path:url(#SVGID_54_);fill:none;stroke:#FFFFFF;stroke-width:1.5;stroke-miterlimit:10;}
	.st128{display:inline;opacity:0.12;fill:#050505;}
	.st129{clip-path:url(#SVGID_58_);fill:none;stroke:#BC0202;stroke-width:1.5;stroke-miterlimit:10;}
	.st130{clip-path:url(#SVGID_60_);fill:none;stroke:#FFFFFF;stroke-width:1.5;stroke-miterlimit:10;}
	.st131{clip-path:url(#SVGID_62_);fill:none;stroke:#BC0202;stroke-width:1.5;stroke-miterlimit:10;}
	.st132{clip-path:url(#SVGID_64_);fill:none;stroke:#FFFFFF;stroke-width:1.5;stroke-miterlimit:10;}
	.st133{opacity:0.3;clip-path:url(#SVGID_64_);fill:#FFFFFF;}
	.st134{clip-path:url(#SVGID_66_);fill:none;stroke:#FFFFFF;stroke-width:1.5;stroke-miterlimit:10;}
	.st135{clip-path:url(#SVGID_68_);fill:none;stroke:#FFFFFF;stroke-width:1.5;stroke-miterlimit:10;}
	.st136{clip-path:url(#SVGID_70_);fill:none;stroke:#FFFFFF;stroke-width:1.5;stroke-miterlimit:10;}
	.st137{opacity:0.19;clip-path:url(#SVGID_72_);}
	.st138{clip-path:url(#SVGID_74_);fill:none;stroke:#BC0202;stroke-width:1.5;stroke-miterlimit:10;}
	.st139{clip-path:url(#SVGID_76_);fill:none;stroke:#BC0202;stroke-width:1.5;stroke-miterlimit:10;}
	.st140{clip-path:url(#SVGID_78_);fill:none;stroke:#BC0202;stroke-width:1.5;stroke-miterlimit:10;}
	.st141{clip-path:url(#SVGID_80_);fill:none;stroke:#FFFFFF;stroke-width:1.5;stroke-miterlimit:10;}
	.st142{opacity:0.3;clip-path:url(#SVGID_80_);fill:#FFFFFF;}
</style>
<g id="Contenu_principal">
</g>
<g id="Tribus">
</g>
<g id="Animaux">
	<g transform="matrix(1.25 0 0 -1.25 0 45)">
		<g>
			<g>
				<g>
					<path class="st96" d="M12.8,30.5c0.4,1.7,0.3,2.6-0.5,3c-0.8,0.4,0.3,2.2,1.6,0.7c1.4-1.6,1.2-3,0.5-4
						C13.9,29.2,12.6,29.7,12.8,30.5"/>
					<path class="st96" d="M12.4,28.1c-0.8-1.6-1.4-2.2-2.3-2.1c-0.9,0.1-1.2-1.9,0.8-1.5c2,0.3,2.8,1.6,3,2.8
						C14.1,28.4,12.8,28.9,12.4,28.1"/>
					<path class="st96" d="M21.8,22.9c-1.7,1.1-4.5-1.2-4.7-1.9c-0.3-0.7,1.4-2.9,0.9-4.1c-0.5-1.2,0.9-1.5,1.6-0.4
						c0.6,1.1,0.3,3,0.1,3.5c-0.1,0.5,1.8,1,3,0C24,19,22.5,22.4,21.8,22.9"/>
					<path class="st96" d="M22.7,23.6c-1.3,1.6,0.8,4.5,1.5,4.9c0.7,0.3,2.1-0.3,3.3,0.2c1.2,0.6,1.4-0.7,0.5-1.6
						c-1-0.9-1.9-1.1-2.6-1.3c-0.5-0.1,0-1.7,0-3.3C25.5,21.1,23.2,22.9,22.7,23.6"/>
				</g>
				<path id="SVGCleanerId_0_3_" class="st96" d="M12.5,33.6c0-0.3-0.3-0.6-0.6-0.6c-0.3,0-0.6,0.3-0.6,0.6c0,0.3,0.3,0.6,0.6,0.6
					C12.3,34.2,12.5,33.9,12.5,33.6"/>
				<g>
					<path class="st96" d="M10.1,26.2c0-0.3-0.3-0.6-0.6-0.6c-0.3,0-0.6,0.3-0.6,0.6c0,0.3,0.3,0.6,0.6,0.6
						C9.8,26.8,10.1,26.5,10.1,26.2"/>
					<path class="st96" d="M9.8,24.8c0-0.3-0.3-0.6-0.6-0.6c-0.3,0-0.6,0.3-0.6,0.6c0,0.3,0.3,0.6,0.6,0.6S9.8,25.1,9.8,24.8"/>
					<path class="st96" d="M11,24.2c0-0.3-0.3-0.6-0.6-0.6c-0.3,0-0.6,0.3-0.6,0.6c0,0.3,0.3,0.6,0.6,0.6C10.7,24.8,11,24.5,11,24.2
						"/>
					<path class="st96" d="M18.1,16.9c0.1-0.3-0.1-0.7-0.4-0.8c-0.3-0.1-0.7,0.1-0.8,0.4c-0.1,0.3,0.1,0.7,0.4,0.8
						C17.7,17.4,18,17.2,18.1,16.9"/>
					<path class="st96" d="M18.8,15.8c0.1-0.3-0.1-0.7-0.4-0.8c-0.3-0.1-0.7,0.1-0.8,0.4c-0.1,0.3,0.1,0.7,0.4,0.8
						C18.3,16.3,18.6,16.1,18.8,15.8"/>
					<path class="st96" d="M20.1,16c0.1-0.3-0.1-0.7-0.4-0.8c-0.3-0.1-0.7,0.1-0.8,0.4c-0.1,0.3,0.1,0.7,0.4,0.8
						C19.7,16.5,20,16.3,20.1,16"/>
					<path class="st96" d="M28.2,29.1c0-0.3-0.3-0.6-0.6-0.6c-0.3,0-0.6,0.3-0.6,0.6c0,0.3,0.3,0.6,0.6,0.6
						C28,29.7,28.2,29.4,28.2,29.1"/>
					<path class="st96" d="M29.5,28.5c0-0.3-0.3-0.6-0.6-0.6c-0.3,0-0.6,0.3-0.6,0.6s0.3,0.6,0.6,0.6C29.2,29.1,29.5,28.8,29.5,28.5
						"/>
					<path class="st96" d="M29.2,27.1c0-0.3-0.3-0.6-0.6-0.6c-0.3,0-0.6,0.3-0.6,0.6c0,0.3,0.3,0.6,0.6,0.6
						C28.9,27.7,29.2,27.4,29.2,27.1"/>
					<path class="st96" d="M12.7,34.9c0-0.3-0.3-0.6-0.6-0.6c-0.3,0-0.6,0.3-0.6,0.6c0,0.3,0.3,0.6,0.6,0.6
						C12.4,35.5,12.7,35.2,12.7,34.9"/>
				</g>
				<g transform="translate(1.764 2.02)">
					<path id="SVGCleanerId_0_2_" class="st96" d="M12.4,33.4c0-0.3-0.3-0.6-0.6-0.6c-0.3,0-0.6,0.3-0.6,0.6c0,0.3,0.3,0.6,0.6,0.6
						C12.1,34,12.4,33.7,12.4,33.4"/>
				</g>
				<path class="st96" d="M0,31.5c0.2,0.9,3.9,3.9,7.2,3.3c1.7-0.3,2.4-2.8,4.2-2.8c9.4-0.3,18.5-9.2,15.6-17.7
					c-1.2-3.7-4.7-7.3-12.8-4.1c-1.6,0.6-3.3,1.6-6.5,1c-2.4-0.5-2.6-2.6-2.3-3.7c0.2-0.9-0.1-1.3-0.6-0.6c-1,1.5-1.1,3.6,0.5,4.9
					c3.2,2.7,7.7,1.1,10.9,0c5.4-1.7,8.2,3,5.3,8.6c-2.9,5.4-8.1,6.9-11.6,7.3c-1,0.1-3-1.7-4.5-1.4C2.4,26.7-0.2,30.9,0,31.5"/>
				<path class="st97" d="M0,31.5c0.2,0.9,3.9,3.9,7.2,3.3c1.7-0.3,2.4-2.8,4.2-2.8c9.4-0.3,18.5-9.2,15.6-17.7
					c-1.2-3.7-4.7-7.3-12.8-4.1c-1.6,0.6-3.3,1.6-6.5,1c-2.4-0.5-2.6-2.6-2.3-3.7c0.1-0.4,0.1-0.8,0-0.9c-0.8,1.1-1.1,3.6,0.5,4.9
					c2.9,2.2,7.1,0.1,11-0.9c8.5-2.1,10.1,6.6,6.6,12.3C19.2,29.8,5.6,31.4,0,31.5"/>
				<path id="SVGCleanerId_1_3_" class="st98" d="M6.5,33.7c0-0.5-0.4-0.8-0.8-0.8s-0.8,0.4-0.8,0.8c0,0.5,0.4,0.8,0.8,0.8
					S6.5,34.2,6.5,33.7"/>
				<g transform="translate(-1 -7)">
					<path id="SVGCleanerId_1_2_" class="st98" d="M6.6,34.4c0-0.5-0.4-0.8-0.8-0.8c-0.5,0-0.8,0.4-0.8,0.8c0,0.5,0.4,0.8,0.8,0.8
						C6.2,35.2,6.6,34.9,6.6,34.4"/>
				</g>
			</g>
		</g>
	</g>
</g>
<g id="Végétaux">
</g>
<g id="GRID" class="st116">
	
		<image style="display:inline;overflow:visible;opacity:0.15;" width="1200" height="200" xlink:href="../../Downloads/1200px-12col-78w-24gut.png"  transform="matrix(1.6 0 0 5.4 -1127 -41.0699)">
	</image>
</g>
<g id="_x31_">
</g>
<g id="_x32_" class="st116">
</g>
<g id="_x33_" class="st116">
</g>
<g id="_x34_" class="st116">
</g>
</svg>
