<?xml version="1.0" encoding="utf-8"?>
<!-- Generator: Adobe Illustrator 22.0.1, SVG Export Plug-In . SVG Version: 6.00 Build 0)  -->
<svg version="1.1" onclick="alert(&quot;d&quot;)" xmlns="http://www.w3.org/2000/svg" xmlns:xlink="http://www.w3.org/1999/xlink"
	 x="0px" y="0px" viewBox="0 0 48 33.7" style="enable-background:new 0 0 48 33.7;" xml:space="preserve">
<style type="text/css">
	.st0{fill:#EFEFEF;}
	.st1{opacity:0.7;}
	.st2{fill:#999999;}
	.st3{fill:#BC0202;}
	.st4{fill:#75892B;}
	.st5{fill:#EFEFEF;stroke:#000000;stroke-miterlimit:10;}
	.st6{fill:#494949;}
	.st7{fill:none;stroke:#333333;stroke-miterlimit:10;}
	.st8{opacity:4.000000e-02;}
	.st9{fill:#BC0202;stroke:#EFEFEF;stroke-width:9;stroke-miterlimit:10;}
	.st10{fill:#75892B;stroke:#EFEFEF;stroke-width:7;stroke-miterlimit:10;}
	.st11{opacity:0.5;}
	.st12{clip-path:url(#SVGID_4_);}
	.st13{opacity:0.4;}
	.st14{opacity:0.4;fill:#333333;stroke:#808080;stroke-width:0.75;stroke-miterlimit:10;}
	.st15{fill:#333333;stroke:#BC0202;stroke-width:0.75;stroke-miterlimit:10;}
	.st16{fill:none;stroke:#FFFFFF;stroke-miterlimit:10;}
	.st17{fill:#FFFFFF;}
	.st18{clip-path:url(#SVGID_16_);fill:none;stroke:#FFFFFF;stroke-width:1.5;stroke-miterlimit:10;}
	.st19{fill:none;stroke:#FFFFFF;stroke-width:2;stroke-miterlimit:10;}
	.st20{fill:#FFFFFF;stroke:#FCFCFC;stroke-width:0.75;stroke-miterlimit:10;}
	.st21{opacity:0.4;fill:#FFFFFF;stroke:#FCFCFC;stroke-width:0.75;stroke-miterlimit:10;}
	.st22{fill:#D1D1D1;}
	.st23{fill:#333333;}
	.st24{opacity:0.7;clip-path:url(#SVGID_22_);}
	.st25{clip-path:url(#SVGID_22_);}
	.st26{opacity:0.5;clip-path:url(#SVGID_22_);}
	.st27{clip-path:url(#SVGID_24_);fill:none;stroke:#000000;stroke-width:1.5;stroke-miterlimit:10;}
	.st28{fill:none;stroke:#000000;stroke-width:2;stroke-miterlimit:10;}
	.st29{fill:#7F1616;}
	.st30{fill:#58661E;}
	.st31{fill:#7F7F7F;}
	.st32{fill:none;}
	.st33{opacity:0.22;fill:#515151;}
	.st34{fill:#BC0202;stroke:#EFEFEF;stroke-width:4.5;stroke-miterlimit:10;}
	.st35{fill:none;stroke:#BC0202;stroke-width:10;stroke-miterlimit:10;}
	.st36{fill:#B3B3B3;}
	.st37{opacity:0.7;clip-path:url(#SVGID_28_);}
	.st38{opacity:0.5;clip-path:url(#SVGID_28_);}
	.st39{opacity:0.4;clip-path:url(#SVGID_28_);}
	.st40{clip-path:url(#SVGID_30_);fill:none;stroke:#000000;stroke-width:1.5;stroke-miterlimit:10;}
	.st41{clip-path:url(#SVGID_32_);fill:#EFEFEF;stroke:#000000;stroke-miterlimit:10;}
	.st42{fill:#EDEDEE;}
	.st43{fill:#FF968A;}
	.st44{fill:#91AAC4;}
	.st45{fill:#3F5666;}
	.st46{fill:#E8C1B5;}
	.st47{fill:#CCA295;}
	.st48{fill:#E1E9F2;}
	.st49{fill:#B3D2F2;}
	.st50{fill:#2F3F4A;}
	.st51{fill:#9AA7B8;}
	.st52{fill:#444D56;}
	.st53{fill:#2C343A;}
	.st54{fill:#EAA50C;}
	.st55{fill:#A0D9F2;}
	.st56{fill:#D18E07;}
	.st57{fill:#A56B04;}
	.st58{fill:#F7B32D;}
	.st59{fill:#1D2C30;}
	.st60{fill:#FFE300;}
	.st61{fill:#E5C505;}
	.st62{fill:#DB950B;}
	.st63{fill:#81C784;}
	.st64{fill:#4CAF50;}
	.st65{fill:#B26147;}
	.st66{fill:#8C4D39;}
	.st67{fill:#99533E;}
	.st68{fill:#CC6E51;}
	.st69{fill:#F9C199;}
	.st70{fill:#F08466;}
	.st71{fill:#535353;}
	.st72{fill:#A2A2A2;}
	.st73{fill:#FEC24C;}
	.st74{fill:#BC8D2F;}
	.st75{fill:#CBCDD1;}
	.st76{opacity:0.38;fill:#FFFFFF;}
	.st77{opacity:0.73;fill:#BC0202;}
	.st78{stroke:#FFFFFF;stroke-miterlimit:10;}
	.st79{fill:#A6A8AA;}
	.st80{fill:#C43535;}
	.st81{fill:#D0D1D3;}
	.st82{fill:#808183;}
	.st83{clip-path:url(#SVGID_34_);fill:none;stroke:#000000;stroke-width:1.5;stroke-miterlimit:10;}
	.st84{fill:none;stroke:#000000;stroke-miterlimit:10;}
	.st85{fill:#325763;}
	.st86{fill:#05232E;}
	.st87{fill:#6B8F9C;}
	.st88{fill:#F6D76F;}
	.st89{fill:#FBB071;}
	.st90{fill:#77BA70;}
	.st91{fill:#497F47;}
	.st92{fill:#F4D682;}
	.st93{fill:#A5C68B;}
	.st94{fill:#8C5218;}
	.st95{fill:#CCA154;}
	.st96{fill:#3E721D;}
	.st97{fill:#77B255;}
	.st98{fill:#292F33;}
	.st99{fill:#AA3E51;}
	.st100{fill:#D6C185;}
	.st101{fill:#F72349;}
	.st102{fill:#16A5D9;}
	.st103{fill:#FB5858;}
	.st104{fill:#D87D7D;}
	.st105{fill:#8DBAC6;}
	.st106{fill:#66A3B2;}
	.st107{fill:#4D4D4D;}
	.st108{fill:#5E6D1D;}
	.st109{fill:#874D20;}
	.st110{fill:#BA9052;}
	.st111{fill:#B1CD3E;}
	.st112{fill:#A3BC3B;}
	.st113{fill:#7E9822;}
	.st114{fill:#677C0F;}
	.st115{fill:#99AA37;}
	.st116{display:none;}
	.st117{clip-path:url(#SVGID_38_);fill:none;stroke:#FFFFFF;stroke-width:1.5;stroke-miterlimit:10;}
	.st118{clip-path:url(#SVGID_40_);fill:none;stroke:#FFFFFF;stroke-width:1.5;stroke-miterlimit:10;}
	.st119{clip-path:url(#SVGID_42_);fill:none;stroke:#FFFFFF;stroke-width:1.5;stroke-miterlimit:10;}
	.st120{opacity:0.3;clip-path:url(#SVGID_42_);fill:#FFFFFF;}
	.st121{clip-path:url(#SVGID_44_);fill:none;stroke:#FFFFFF;stroke-width:1.5;stroke-miterlimit:10;}
	.st122{display:inline;}
	.st123{clip-path:url(#SVGID_48_);fill:none;stroke:#FFFFFF;stroke-width:1.5;stroke-miterlimit:10;}
	.st124{clip-path:url(#SVGID_50_);fill:none;stroke:#BC0202;stroke-width:1.5;stroke-miterlimit:10;}
	.st125{clip-path:url(#SVGID_52_);fill:none;stroke:#FFFFFF;stroke-width:1.5;stroke-miterlimit:10;}
	.st126{opacity:0.3;clip-path:url(#SVGID_52_);fill:#FFFFFF;}
	.st127{clip-path:url(#SVGID_54_);fill:none;stroke:#FFFFFF;stroke-width:1.5;stroke-miterlimit:10;}
	.st128{display:inline;opacity:0.12;fill:#050505;}
	.st129{clip-path:url(#SVGID_58_);fill:none;stroke:#BC0202;stroke-width:1.5;stroke-miterlimit:10;}
	.st130{clip-path:url(#SVGID_60_);fill:none;stroke:#FFFFFF;stroke-width:1.5;stroke-miterlimit:10;}
	.st131{clip-path:url(#SVGID_62_);fill:none;stroke:#BC0202;stroke-width:1.5;stroke-miterlimit:10;}
	.st132{clip-path:url(#SVGID_64_);fill:none;stroke:#FFFFFF;stroke-width:1.5;stroke-miterlimit:10;}
	.st133{opacity:0.3;clip-path:url(#SVGID_64_);fill:#FFFFFF;}
	.st134{clip-path:url(#SVGID_66_);fill:none;stroke:#FFFFFF;stroke-width:1.5;stroke-miterlimit:10;}
	.st135{clip-path:url(#SVGID_68_);fill:none;stroke:#FFFFFF;stroke-width:1.5;stroke-miterlimit:10;}
	.st136{clip-path:url(#SVGID_70_);fill:none;stroke:#FFFFFF;stroke-width:1.5;stroke-miterlimit:10;}
	.st137{opacity:0.19;clip-path:url(#SVGID_72_);}
	.st138{clip-path:url(#SVGID_74_);fill:none;stroke:#BC0202;stroke-width:1.5;stroke-miterlimit:10;}
	.st139{clip-path:url(#SVGID_76_);fill:none;stroke:#BC0202;stroke-width:1.5;stroke-miterlimit:10;}
	.st140{clip-path:url(#SVGID_78_);fill:none;stroke:#BC0202;stroke-width:1.5;stroke-miterlimit:10;}
	.st141{clip-path:url(#SVGID_80_);fill:none;stroke:#FFFFFF;stroke-width:1.5;stroke-miterlimit:10;}
	.st142{opacity:0.3;clip-path:url(#SVGID_80_);fill:#FFFFFF;}
</style>
<g id="Contenu_principal">
	<g>
		<g>
			<path class="st43" d="M19.3,27c-0.4,0-0.8-0.3-0.8-0.8v-1.9c0-0.4,0.3-0.8,0.8-0.8s0.8,0.3,0.8,0.8v1.9C20,26.7,19.7,27,19.3,27z
				"/>
			<path class="st43" d="M14.4,27c-0.4,0-0.8-0.3-0.8-0.8v-1.9c0-0.4,0.3-0.8,0.8-0.8s0.8,0.3,0.8,0.8v1.9
				C15.2,26.7,14.9,27,14.4,27z"/>
			<path class="st43" d="M16.9,27.7c-0.4,0-0.8-0.3-0.8-0.8V25c0-0.4,0.3-0.8,0.8-0.8s0.8,0.3,0.8,0.8v1.9
				C17.6,27.3,17.3,27.7,16.9,27.7z"/>
		</g>
		<g>
			<path class="st44" d="M2.5,17.1c-0.4,0-0.8-0.3-0.8-0.8v-4c0-2.1,1.7-3.8,3.8-3.8c0.4,0,0.8,0.3,0.8,0.8c0,0.4-0.3,0.8-0.8,0.8
				c-1.2,0-2.3,1-2.3,2.3v4C3.3,16.7,2.9,17.1,2.5,17.1z"/>
			<path class="st44" d="M29,32.1l-0.3,1.4c0,0.2-0.2,0.3-0.3,0.3h-3c-0.2,0-0.4-0.2-0.4-0.4l0.2-2.1l1.1-13.5l4-1.9l-2.8,14.9
				c0,0,0,0.1,0,0.1c0,0.1,0.1,0.2,0.2,0.2l1.2,0.7C28.9,31.8,29,31.9,29,32.1z"/>
		</g>
		<path class="st45" d="M29,32.1l-0.3,1.4c0,0.2-0.2,0.3-0.3,0.3h-3c-0.2,0-0.4-0.2-0.4-0.4l0.2-2.1l2.3-0.4c0,0.1,0.1,0.2,0.2,0.2
			l1.2,0.7C28.9,31.8,29,31.9,29,32.1z"/>
		<path class="st44" d="M10.8,25.6v4.7c0,0.1,0,0.2,0.1,0.2c0,0,0.1,0.1,0.1,0.1l1.4,0.9c0.1,0.1,0.1,0.1,0.2,0.2l0.3,1.5
			c0,0.2-0.1,0.4-0.3,0.4H9c-0.2,0-0.3-0.2-0.3-0.3v-9.6l1.1-5.9l6.9,1.3l-3.8,6.3L10.8,25.6z"/>
		<path class="st45" d="M12.5,33.7H9c-0.2,0-0.3-0.2-0.3-0.3v-2.4l2.2-0.4c0,0,0.1,0.1,0.1,0.1l1.4,0.9c0.1,0.1,0.1,0.1,0.2,0.2
			l0.3,1.5C12.9,33.5,12.7,33.7,12.5,33.7z"/>
		<ellipse class="st46" cx="16.9" cy="20.7" rx="5.1" ry="4.6"/>
		<path class="st47" d="M13.7,20.7c0-2.2,1.8-4.1,4.1-4.5c-0.3-0.1-0.6-0.1-1-0.1c-2.8,0-5.1,2-5.1,4.6s2.3,4.6,5.1,4.6
			c0.3,0,0.7,0,1-0.1C15.5,24.8,13.7,22.9,13.7,20.7z"/>
		<path class="st48" d="M48,4.9V7c0,1.3-2.3,2.3-2.3,2.3l-1.1,0.2l-4.5,1c0,0,0,0,0,0h0c-0.2,0.1-2.7,6.7-4.4,7.7
			c-3.1,1.8-2.1,12-2.1,12c0,0,0,0.1,0,0.1c0,0,0.1,0.1,0.1,0.1l1.8,1.4c0.1,0.1,0.2,0.2,0.1,0.4l-0.3,1.2c0,0.2-0.2,0.3-0.3,0.3
			h-3.3c-0.2,0-0.3-0.1-0.4-0.3L30.9,31l-0.1-9.5c0-0.2-0.2-0.3-0.4-0.3l-0.4,0l-11.2-0.4L13,20.6c-0.1,0-0.2,0-0.3,0.1l-5.1,4.7
			c-0.1,0.1-0.2,0.1-0.3,0.1H5.7c-0.2,0-0.4,0.2-0.4,0.4v4.7c0,0.1,0,0.1,0,0.2c0,0.1,0.1,0.1,0.1,0.1l0.9,0.7
			c0.1,0.1,0.1,0.1,0.1,0.2l0.3,1.3c0.1,0.2-0.1,0.5-0.4,0.5H3.2c-0.2,0-0.4-0.2-0.4-0.4v-9.9c0-0.2,0.1-0.3,0.2-0.4l1.1-1.2
			c0.1-0.1,0.2-0.2,0.2-0.4l0-6.3l0-5c0-1.5,0.5-2.9,1.4-4c1.1-1.5,2.9-2.4,4.9-2.5l6.4,0l10.5,0l2.3,0l10.3-1.5
			c0.7,0,1.3,0.3,1.8,0.7l0.5,0.5c0.5,0.5,1.1,0.7,1.8,0.7h3.1C47.7,4.1,48,4.5,48,4.9z"/>
		<path class="st49" d="M4.8,23.6c0-0.2,0.1-0.3,0.2-0.4L6.2,22c0.1-0.1,0.2-0.2,0.2-0.4l0-6.6l0-5.1c0-1.6,0.5-3,1.4-4.2
			c0.7-0.9,1.5-1.6,2.6-2C8.4,3.8,6.8,4.8,5.7,6.1c-0.9,1.1-1.4,2.5-1.4,4l0,5l0,6.3c0,0.1-0.1,0.3-0.2,0.3l-1.1,1.2
			c-0.1,0.1-0.2,0.2-0.2,0.4v9.9c0,0.2,0.2,0.4,0.4,0.4h1.6C4.8,33.7,4.8,23.6,4.8,23.6z"/>
		<g>
			<path class="st45" d="M6.4,33.7H3.2c-0.2,0-0.4-0.2-0.4-0.4v-2.1l2.5-0.4c0,0.1,0.1,0.1,0.1,0.1l0.9,0.7c0.1,0.1,0.1,0.1,0.1,0.2
				l0.3,1.3C6.9,33.5,6.7,33.7,6.4,33.7z"/>
			<path class="st45" d="M35.6,32.2l-0.3,1.2c0,0.2-0.2,0.3-0.3,0.3h-3.3c-0.2,0-0.3-0.1-0.4-0.3L30.9,31l2.7-0.7
				c0,0,0.1,0.1,0.1,0.1l1.8,1.4C35.6,31.9,35.7,32.1,35.6,32.2z"/>
		</g>
		<path class="st50" d="M27.6,4.9c0,3-2.4,5.4-5.4,5.4c-3,0-5.4-2.4-5.4-5.4c0-0.4,0-0.8,0.1-1.2l10.5,0C27.6,4,27.6,4.4,27.6,4.9z"
			/>
		<path class="st46" d="M48,4.9V7c0,1.3-2.3,2.3-2.3,2.3l-1.1,0.2c-1-1.8-0.4-3.9,0.4-5.4h2.3C47.7,4.1,48,4.5,48,4.9z"/>
		<g>
			<path class="st50" d="M9.6,10.6c0,2.5-2,4.5-4.5,4.5c-0.2,0-0.4,0-0.7,0l0-5c0-1.5,0.5-2.9,1.4-4C7.9,6.5,9.6,8.4,9.6,10.6z"/>
			<path class="st50" d="M30,21.2l-11.2-0.4c0.5-2.3,2.8-4,5.5-4C27.3,16.8,29.7,18.7,30,21.2z"/>
			<ellipse class="st50" cx="41.3" cy="4.9" rx="0.8" ry="0.8"/>
		</g>
		<path class="st48" d="M40.2,2.7c-0.4-0.6-1.3-1.9-2.7-2.6c-0.2-0.1-0.5,0-0.5,0.3c0,1,0,3.2,0.6,4.3c0.1,0.2,0.4,0.2,0.6,0.1
			c0.4-0.4,1.1-1,1.9-1.6C40.3,3,40.3,2.8,40.2,2.7z"/>
		<path class="st44" d="M39.5,2.6c-0.2-0.3-0.7-1-1.4-1.4c-0.1-0.1-0.3,0-0.3,0.2c0,0.5,0,1.7,0.3,2.3c0.1,0.1,0.2,0.1,0.3,0
			c0.2-0.2,0.6-0.5,1-0.9C39.5,2.8,39.6,2.6,39.5,2.6z"/>
		<path class="st50" d="M3.3,19.4v-3.5c0-0.2-0.2-0.4-0.4-0.4l0,0c-1.6,0-2.9,1.3-2.9,2.9v3.5c0,0.2,0.2,0.4,0.4,0.4l0,0
			C2,22.3,3.3,21,3.3,19.4z"/>
	</g>
</g>
<g id="Tribus">
</g>
<g id="Animaux">
</g>
<g id="Végétaux">
</g>
<g id="GRID" class="st116">
</g>
<g id="_x31_">
</g>
<g id="_x32_" class="st116">
</g>
<g id="_x33_" class="st116">
</g>
<g id="_x34_" class="st116">
</g>
</svg>
